# xmcd
#
# Track frame offsets: 
#        150
#        13676
#        29314
#        42136
#        61208
#        84379
#        105260
#        118743
#        135281
#        147952
#        166850
#        184061
#        199277
#        216713
#        229052
#        238537
#        256196
#        271409
#        282405
#        292866
#        315523
#
# Disc length: 4433 seconds
#
# Revision: 5
# Processed by: cddbd v1.5.2PL0 Copyright (c) Steve Scherf et al.
# Submitted via: ExactAudioCopy v1.3
#
DISCID=26114f15
DTITLE=Various Artist - Хит-парад 70-х (вып.3)
DYEAR=1999
DGENRE=Pop
TTITLE0=Веселые ребята - Встречи
TTITLE1=Добры молодцы - Золотой рассвет
TTITLE2=Самоцветы - Багульник
TTITLE3=Песняры - Олеся
TTITLE4=Цветы - Звездочка моя ясная
TTITLE5=Поющие гитары - Не ломай черемухи
TTITLE6=Веселые ребята - Летние каникулы
TTITLE7=Песняры - Косил Ясь конюшину
TTITLE8=Алла Ведищева - Лесной олень
TTITLE9=Геннадий Белов - Звездная песня неба
TTITLE10=Самоцветы - За того парня
TTITLE11=Елена Камбурова - Маленький принц
TTITLE12=Веселые ребята - Как прекрасен этот мир
TTITLE13=Синяя птица - Не обещай меня любить
TTITLE14=Поющие гитары - Песенка велосипедистов
TTITLE15=Зодиак - Пацифик
TTITLE16=Добры молодцы - Как счачтливым быть
TTITLE17=Веселые ребята - Люди встречаются
TTITLE18=Анна Герман - Письмо солдату
TTITLE19=Песняры - Белорусия
TTITLE20=У деревни Крюково - Самоцветы
EXTD=YEAR: 1999 ID3G:  13
EXTT0=
EXTT1=
EXTT2=
EXTT3=
EXTT4=
EXTT5=
EXTT6=
EXTT7=
EXTT8=
EXTT9=
EXTT10=
EXTT11=
EXTT12=
EXTT13=
EXTT14=
EXTT15=
EXTT16=
EXTT17=
EXTT18=
EXTT19=
EXTT20=
PLAYORDER=
